# xmcd
# Copyright (C) 1995-1998 Ti Kan
#
# Track frame offsets:
#       150
#       16688
#       33672
#       47886
#       66582
#       83815
#       100977
#       117092
#       131884
#       150584
#
# Disc length: 2300 seconds
#
# Revision: 0
# Processed by: cddbd v1.5.2PL0 Copyright (c) Steve Scherf et al.
# Submitted via: CD-Transfer v1.0
#
DISCID=8308fa0a
DTITLE=Stage - Tufo, Stage
DYEAR=08
DGENRE=
TTITLE0=Dim
TTITLE1=Ponekad
TTITLE2=Isti
TTITLE3=Otpor
TTITLE4=Zanimljiva Djevojka
TTITLE5=Korak 
TTITLE6=Putujem
TTITLE7=Vrijeme
TTITLE8=Sumrak
TTITLE9=Trag
EXTD=
EXTT0=
EXTT1=
EXTT2=
EXTT3=
EXTT4=
EXTT5=
EXTT6=
EXTT7=
EXTT8=
EXTT9=
PLAYORDER=
